<svg version="1.1" xmlns="http://www.w3.org/2000/svg" xmlns:xlink="http://www.w3.org/1999/xlink" width="16.000000pt" height="16.000000pt" viewBox="0,0,256,256"><g fill="#ff8e4d" fill-rule="nonzero" stroke="none" stroke-width="1" stroke-linecap="butt" stroke-linejoin="miter" stroke-miterlimit="10" stroke-dasharray="" stroke-dashoffset="0" font-family="none" font-weight="none" font-size="none" text-anchor="none" style="mix-blend-mode: normal"><g transform="translate(-15.54368,3.34519) scale(16,16)"><g transform="translate(0,16) scale(0.1,-0.1)"><path d="M120,142c-8,-10 -11,-12 -6,-5c5,9 4,13 -5,13c-18,0 -78,-49 -61,-50c16,0 15,-35 -1,-49c-8,-6 -16,-9 -19,-6c-2,3 -5,-1 -5,-9c0,-8 12,-19 25,-26c28,-12 42,-1 42,35c0,10 16,36 36,56c20,21 33,42 30,48c-10,15 -18,13 -36,-7z"></path></g></g></g></svg>