<svg version="1.1" xmlns="http://www.w3.org/2000/svg" xmlns:xlink="http://www.w3.org/1999/xlink" width="32.000000pt" height="32.000000pt" viewBox="0,0,256,256"><g fill="#ff8e4d" fill-rule="nonzero" stroke="none" stroke-width="1" stroke-linecap="butt" stroke-linejoin="miter" stroke-miterlimit="10" stroke-dasharray="" stroke-dashoffset="0" font-family="none" font-weight="none" font-size="none" text-anchor="none" style="mix-blend-mode: normal"><g transform="translate(0.84055,-0.14904) scale(8,8)"><g transform="translate(0,32) scale(0.1,-0.1)"><path d="M260,305c0,-9 -21,-37 -46,-63c-25,-26 -42,-38 -36,-27c6,11 22,31 36,44c23,22 35,51 20,51c-10,0 -48,-22 -101,-58c-54,-36 -68,-62 -34,-62c29,0 32,-12 11,-58c-20,-44 -36,-51 -70,-30c-15,10 -22,10 -32,0c-17,-17 1,-44 35,-53c15,-4 38,-17 53,-28c15,-12 33,-21 40,-21c21,0 44,41 44,80c1,45 15,69 70,118c58,51 78,86 60,107c-16,20 -50,19 -50,0zM50,75c0,-13 -4,-14 -20,-5c-11,6 -20,13 -20,15c0,3 9,5 20,5c11,0 20,-7 20,-15z"></path></g></g></g></svg>